{"title":"3G (2013) Hindi DVDScr XviD Exclusive","uid":8260751,"size":872549508,"categoryP":"video","categoryS":"movies","magnet":"?xt=urn:btih:ab92c9d9569500e0c34b1252c32aa685903bc354&amp;dn=3G+%282013%29+Hindi+DVDScr+XviD+Exclusive&amp;tr=udp%3A%2F%2Ftracker.openbittorrent.com%3A80&amp;tr=udp%3A%2F%2Fopen.demonii.com%3A1337&amp;tr=udp%3A%2F%2Ftracker.coppersurfer.tk%3A6969&amp;tr=udp%3A%2F%2Fexodus.desync.com%3A6969","seeders":0,"leechers":1,"uploader":"tykoon123","files":-1,"time":1363376234,"description":" &lt;a href=&quot;http://www.shotpix.com/images/46044260974569026765.jpg&quot; rel=&quot;nofollow&quot; target=&quot;_NEW&quot;&gt;http://www.shotpix.com/images/46044260974569026765.jpg&lt;/a&gt;\n\nInfo:\n\nFormat : AVI\nFormat/Info : Audio Video Interleave\nFile size : 832 MiB\nDuration : 2h 3mn\nOverall bit rate : 942 Kbps\n\n\n\nVideo\nID : 0\nFormat : MPEG-4 Visual\nFormat profile : Advanced Simple@L5\nFormat settings, BVOP : 2\nFormat settings, QPel : No\nFormat settings, GMC : No warppoints\nFormat settings, Matrix : Default (H.263)\nCodec ID : XVID\nCodec ID/Hint : XviD\nDuration : 2h 3mn\nBit rate : 743 Kbps\nWidth : 688 pixels\nHeight : 288 pixels\nDisplay aspect ratio : 2.40:1\nFrame rate : 23.976 fps\nColor space : YUV\nChroma subsampling : 4:2:0\nBit depth : 8 bits\nScan type : Progressive\nCompression mode : Lossy\nBits/(Pixel*Frame) : 0.156\nStream size : 656 MiB (79%)\nWriting library : XviD 1.2.1 (UTC 2008-12-04)\n\n\n\nAudio\nID : 1\nFormat : AC-3\nFormat/Info : Audio Coding 3\nMode extension : CM (complete main)\nCodec ID : 2000\nDuration : 2h 3mn\nBit rate mode : Constant\nBit rate : 192 Kbps\nChannel(s) : 2 channels\nChannel positions : Front: L R\nSampling rate : 48.0 KHz\nBit depth : 16 bits\nCompression mode : Lossy\nStream size : 170 MiB (20%)\nAlignment : Aligned on interleaves\nInterleave, duration : 64 ms (1.53 video frames)\nInterleave, preload duration : 192 ms\n\n\n\n\nScreens: &lt;a href=&quot;\nhttp://www.shotpix.com/images/28855411567404983379.png&quot; rel=&quot;nofollow&quot; target=&quot;_NEW&quot;&gt;\nhttp://www.shotpix.com/images/28855411567404983379.png&lt;/a&gt; &lt;a href=&quot;\nhttp://www.shotpix.com/images/75414632297682800538.png&quot; rel=&quot;nofollow&quot; target=&quot;_NEW&quot;&gt;\nhttp://www.shotpix.com/images/75414632297682800538.png&lt;/a&gt; &lt;a href=&quot;\nhttp://www.shotpix.com/images/25320348905515801133.png&quot; rel=&quot;nofollow&quot; target=&quot;_NEW&quot;&gt;\nhttp://www.shotpix.com/images/25320348905515801133.png&lt;/a&gt; &lt;a href=&quot;\nhttp://www.shotpix.com/images/81159777631725074467.png&quot; rel=&quot;nofollow&quot; target=&quot;_NEW&quot;&gt;\nhttp://www.shotpix.com/images/81159777631725074467.png&lt;/a&gt; &lt;a href=&quot;\nhttp://www.shotpix.com/images/05596119602090792898.png&quot; rel=&quot;nofollow&quot; target=&quot;_NEW&quot;&gt;\nhttp://www.shotpix.com/images/05596119602090792898.png&lt;/a&gt; &lt;a href=&quot;\nhttp://www.shotpix.com/images/67252545882747680188.png&quot; rel=&quot;nofollow&quot; target=&quot;_NEW&quot;&gt;\nhttp://www.shotpix.com/images/67252545882747680188.png&lt;/a&gt; &lt;a href=&quot;\nhttp://www.shotpix.com/images/48049220267299958664.png&quot; rel=&quot;nofollow&quot; target=&quot;_NEW&quot;&gt;\nhttp://www.shotpix.com/images/48049220267299958664.png&lt;/a&gt;","torrent":{"xt":"urn:btih:ab92c9d9569500e0c34b1252c32aa685903bc354","amp;dn":"3G+%282013%29+Hindi+DVDScr+XviD+Exclusive","amp;tr":["udp%3A%2F%2Ftracker.openbittorrent.com%3A80","udp%3A%2F%2Fopen.demonii.com%3A1337","udp%3A%2F%2Ftracker.coppersurfer.tk%3A6969","udp%3A%2F%2Fexodus.desync.com%3A6969"],"infoHash":"ab92c9d9569500e0c34b1252c32aa685903bc354","infoHashBuffer":{"type":"Buffer","data":[171,146,201,217,86,149,0,224,195,75,18,82,195,42,166,133,144,59,195,84]},"announce":[],"urlList":[]}}